Coordinates
version=1
nRows=8
nColumns=36
inDegrees=yes

Units are S.I. units (second, meters, Newtons, ...)
If the header above contains a line with 'inDegrees', this indicates whether rotational values are in degrees (yes) or radians (no).

endheader
time	pelvis_tilt	pelvis_list	pelvis_rotation	pelvis_tx	pelvis_ty	pelvis_tz	hip_flexion_r	hip_adduction_r	hip_rotation_r	knee_angle_r	knee_angle_r_beta	ankle_angle_r	subtalar_angle_r	mtp_angle_r	hip_flexion_l	hip_adduction_l	hip_rotation_l	knee_angle_l	knee_angle_l_beta	ankle_angle_l	subtalar_angle_l	mtp_angle_l	lumbar_extension	lumbar_bending	lumbar_rotation	arm_flex_r	arm_add_r	arm_rot_r	elbow_flex_r	pro_sup_r	arm_flex_l	arm_add_l	arm_rot_l	elbow_flex_l	pro_sup_l
      7.35000000	    -13.37796248	     -3.13784242	      7.44987710	      0.46839302	      0.65835402	     -0.01119957	     67.98621467	    -27.96874178	     -5.42290098	     92.92188372	      1.62179282	     43.99609480	     18.49982446	     -7.49999987	     70.88551516	    -25.93575657	     -1.72778465	     91.67834235	      1.60008893	     30.74999791	      0.77772587	     -7.49999987	    -17.75833776	      4.70585158	     -7.78408721	     97.02050730	     23.30412500	     81.46901028	    123.29966607	     93.35795923	     89.06922785	      4.70795012	     71.61844089	    111.46269611	     76.25788113
      7.36666670	    -12.83592830	     -3.37673936	      7.73321102	      0.47411151	      0.66926270	     -0.00795515	     65.36258004	    -27.61400314	     -6.77975218	     90.91650729	      1.58679240	     43.64569673	     18.27419289	     -7.49999987	     69.04715092	    -25.84913099	     -2.05590865	     89.59760264	      1.56377317	     30.21196245	      0.61104975	     -7.49999987	    -17.70844991	      4.79335767	     -7.34379405	     97.55867288	     18.62097141	     76.36581783	    124.89722682	     95.23569628	     89.79551376	      5.57036722	     70.76609857	    111.49068981	     76.70561560
      7.38333330	    -12.66291137	     -3.46302248	      7.68817792	      0.47519934	      0.69156633	     -0.00881548	     62.68066634	    -26.79318891	     -8.09854276	     87.65848919	      1.52992925	     42.70596131	     17.80289696	     -7.49999987	     66.63940277	    -25.60026068	     -2.99595284	     86.56105483	      1.51077541	     29.55860211	      0.89016970	     -7.49999987	    -17.10441102	      4.85610067	     -7.36262951	     97.07922295	     20.27139912	     77.90484028	    123.81148312	     98.61308726	     89.67398154	      5.08052386	     71.28973460	    110.39831993	     78.65294881
      7.40000000	    -12.18352620	     -3.44232612	      7.36623745	      0.47591031	      0.70721067	     -0.00881039	     60.09257139	    -25.89806688	     -9.05127251	     84.48620001	      1.47456236	     41.67541231	     17.65747259	     -7.49999987	     63.78512098	    -25.19637283	     -3.76678635	     83.40766505	      1.45573838	     29.50454697	      1.26094276	     -7.49999987	    -16.73933634	      4.69618292	     -8.00021445	     97.26327202	     21.04699134	     77.45949655	    123.71611549	     98.51807892	     90.48596020	      4.26226390	     71.21602108	    110.47136179	     78.60192859
      7.41666670	    -12.00521086	     -3.33173972	      6.70320980	      0.48200425	      0.71809940	     -0.00391129	     58.23616703	    -24.76734814	     -9.43259664	     81.84143822	      1.42840256	     40.69645605	     17.56007549	     -7.49999987	     61.15327604	    -25.49080287	     -4.81458773	     80.58144256	      1.40641149	     29.16644388	      1.94232546	     -7.49999987	    -15.63917109	      4.47432069	     -8.45523625	     97.07903337	     23.81664855	     78.80938414	    122.58341939	     98.79574188	     90.32221746	      2.94727214	     71.17863582	    111.37473635	     78.69871318
      7.43333330	    -12.03091369	     -3.20218444	      6.46505609	      0.48876639	      0.73718006	     -0.00752078	     55.48197374	    -23.79117811	    -10.13026707	     77.95605446	      1.36058982	     39.35640402	     16.83521887	     -7.49999987	     58.10915422	    -25.16568244	     -6.19609730	     76.87011682	      1.34163663	     28.77419810	      3.02880945	     -7.49999987	    -13.85882812	      4.38470243	     -9.15454768	     95.82655295	     25.57301570	     79.35010099	    121.85875260	    100.17301346	     89.02226625	      1.98941448	     71.05744696	    112.13512079	     78.99642578
      7.45000000	    -11.78325260	     -2.96026945	      6.09856742	      0.48358211	      0.75836002	     -0.00460612	     53.13635144	    -22.60899103	    -10.41653400	     74.05687587	      1.29253632	     37.45056467	     16.09260844	     -7.49999987	     54.89621834	    -24.68755807	     -7.70186169	     72.70170622	      1.26888415	     28.34194312	      4.13347680	     -7.49999987	    -12.88206318	      3.92775590	     -9.46631047	     94.84304137	     26.60668265	     80.39980064	    121.43863066	     98.09199739	     88.24209401	      1.27848880	     71.67835505	    112.11302586	     78.11856046
      7.46666670	    -12.04255722	     -2.67009506	      5.90600709	      0.47817573	      0.76617458	     -0.00096327	     52.23593367	    -21.69306938	    -10.34143289	     71.05930431	      1.24021882	     35.65516358	     14.68786578	     -7.49999987	     52.95424178	    -23.95470218	     -8.61219863	     69.05350750	      1.20521107	     27.78051940	      4.25149262	     -7.49999987	    -12.02895421	      3.37054260	    -10.07624049	     96.02054883	     26.89368615	     79.05304520	    120.50314523	     98.34808266	     89.24395969	      0.30426087	     72.49720339	    112.91187570	     78.29133838
